<svg id="Layer_1" data-name="Layer 1" xmlns="http://www.w3.org/2000/svg" xmlns:xlink="http://www.w3.org/1999/xlink" viewBox="0 0 48.4 41.82"><defs><style>.cls-1{fill:#5a656c;}.cls-2{fill:#040505;}.cls-3{fill:#f8f8f7;}.cls-4{fill:#eda1a1;}.cls-5{fill:#030304;}.cls-6{fill:#c97582;}.cls-7{fill:#040404;}.cls-8{fill:#040506;}.cls-9{fill:#080a09;}.cls-10{fill:#070808;}.cls-11{fill:#070708;}.cls-12{fill:#070909;}.cls-13{fill:#060809;}.cls-14{fill:#050606;}.cls-15{fill:#0a0b0b;}.cls-16{fill:#050506;}</style><symbol id="rat" data-name="rat" viewBox="0 0 89.75 77.55"><path class="cls-1" d="M38,4.77h.86a6.88,6.88,0,0,1,2.38.36l.15.06a10.36,10.36,0,0,1,3.91,2.4l.12.12a15.3,15.3,0,0,1,1.45,1.56L47,9.5A17.21,17.21,0,0,1,48.08,11a27.88,27.88,0,0,0,1.78,2.52c.09.12.09.12.09.23l.17-.05.06.08.08.11.08.11.06.09h.06a9.35,9.35,0,0,0-.84-3.81,14.65,14.65,0,0,1,2.24-.73l.19-.05c.8-.18,1.6-.36,2.4-.52s1.67-.38,2.5-.6l.95-.25.18,0L58.25,8l.15,0a.89.89,0,0,1,.3,0,3.5,3.5,0,0,1-.29.49,3.8,3.8,0,0,0-.72,1.69l.22,0a16.8,16.8,0,0,1,2.75-.19,3.08,3.08,0,0,1-.32.69A2.41,2.41,0,0,0,60.15,12l.56,0v-.45h.06V12a7.57,7.57,0,0,0,.66-.61,3.21,3.21,0,0,1,1.25-.84.94.94,0,0,1,.32.11l.19.07.2.09.21.09c.47.2.93.41,1.38.65l.34.17a13.57,13.57,0,0,1,3.07,2.18l.24.2a10.81,10.81,0,0,1,1.05,1.09l.11.13c.28.32.53.66.78,1l.09.13a5.25,5.25,0,0,1,.38.58c.09.19.09.19.27.29l-.61.29-.19.09-1,.48-.2.09-.38.16a1.43,1.43,0,0,0-.81.63,1.58,1.58,0,0,0,.09.86,1,1,0,0,0,.84.39,2.11,2.11,0,0,0,.95-.26l.16-.07.35-.16.6-.28c.58-.27,1.15-.53,1.72-.82l.34.53.09.15.1.14.08.13a.32.32,0,0,1,.06.23l-.13,0a30.16,30.16,0,0,0-3.65.71l-.15,0a1.53,1.53,0,0,0-.94.52,1.31,1.31,0,0,0,0,.28,2.17,2.17,0,0,0,.51.08l.19,0h.14v.18A3.17,3.17,0,0,0,70.13,24a2.71,2.71,0,0,0,2.07.86,2.58,2.58,0,0,0,1.69-.64l.1-.08A3,3,0,0,0,74.68,23a3.18,3.18,0,0,1,.16-.32l.06.17a2.22,2.22,0,0,0,.46.64l.1.11.19.22.28.33a11.83,11.83,0,0,0,1.95,1.65l.12.08.11.08c.09.08.09.08.15.25l-.1,0a4.31,4.31,0,0,0-2.71,1.44,2.67,2.67,0,0,0-.22,2,7.19,7.19,0,0,0,3,3.23,6.65,6.65,0,0,1-1.58,1.36l-.18.11-.48.32-.12.07a1.58,1.58,0,0,1-.67.23,12.47,12.47,0,0,0-2.68,1c-1.44.62-1.44.62-2,.58a2.68,2.68,0,0,1,.28-.84,1.4,1.4,0,0,0-.85.8,2.52,2.52,0,0,0-.21.71,20.68,20.68,0,0,1-4.48.82l-.44,0a13.73,13.73,0,0,1-1.81.1H61.3A38.56,38.56,0,0,1,56.49,38l-.16,0c-1.35-.16-2.68-.37-4-.65l-.57-.12a13.67,13.67,0,0,1-7.15-3.42,2.39,2.39,0,0,0-.23-.22A1.7,1.7,0,0,1,44,32.19a.89.89,0,0,0-.51.06,4.37,4.37,0,0,0-.67.82l-.16.24h-.11a4.59,4.59,0,0,1-.13-1.23V31.9a8.2,8.2,0,0,1,.14-1.4,2,2,0,0,0,0-.55,1.57,1.57,0,0,0-1.15.44l-.25.2a1.45,1.45,0,0,1-.34.2,17.13,17.13,0,0,1,.17-3.2l0-.12A21.75,21.75,0,0,1,41.77,25,4.8,4.8,0,0,0,40,27.79l-.09.42-.06.21a6.2,6.2,0,0,0,.34,4c.09.19.09.19.28.21a.9.9,0,0,0,.56-.33c.11-.1.22-.18.33-.27v.1a6.56,6.56,0,0,0,.27,1.7l.07.18a1.63,1.63,0,0,0,.61,1,.62.62,0,0,0,.33,0,.93.93,0,0,0,.28-.28l.08-.09.2-.24a3,3,0,0,1,.23.56,3.29,3.29,0,0,0,1.23,1.55,1.82,1.82,0,0,1,.5.63,8.94,8.94,0,0,0,.79,1l.15.17a6.75,6.75,0,0,0,.86.83l.13.12a15.53,15.53,0,0,0,4.35,2.53l.13,0a2.47,2.47,0,0,0,.66.17l-.31.2a12,12,0,0,0-3.15,2.93,1.33,1.33,0,0,1-.36.35c-1.28-1.33-1.28-1.33-1.28-1.91H47a5.51,5.51,0,0,0,2,3.87c.23.19.47.37.71.54l.73.57.11.09A4.29,4.29,0,0,1,52.2,51.3a4.88,4.88,0,0,1-.62,2.92h-.06v-.58a2.83,2.83,0,0,0-.15-.82l-.16-.06,0,.17C51,54.54,51,54.54,50.68,55a.69.69,0,0,1-.54.12h-.35a.71.71,0,0,1,.05-.55A5,5,0,0,0,50,52.87h-.11l-.05.14-.21.5a1.43,1.43,0,0,1-.08.22c0,.11-.09.21-.13.32l-.08.19c-.06.14-.06.14-.18.2a5.82,5.82,0,0,1-.54-2c0-.2-.06-.4-.09-.6s0-.18,0-.28l-.17,0,.06-.28a4.32,4.32,0,0,0-1-.5l-.16-.06c-.32-.12-.65-.23-1-.33a9.1,9.1,0,0,1-3.77-2.2l-.09-.09a7,7,0,0,1-.67-.77l-.09-.12a8.31,8.31,0,0,1-.49-.72c-.05-.1-.05-.1-.17-.15a5.54,5.54,0,0,0,.52,3.47,1.11,1.11,0,0,1,.15.36,4.25,4.25,0,0,0,1,1.55l.1.13A6.44,6.44,0,0,0,44,53l.11.06a.65.65,0,0,0,.37.16l.07-.18.09-.24,0-.12c.12-.3.12-.3.18-.36a6.82,6.82,0,0,1,1,.14c.49.08,1,.14,1.46.2,0,.18.07.36.1.54l0,.15c0,.25.1.51.14.76a12,12,0,0,1-3.14-.72c-.36,1.07-.69,2.14-1,3.25h-.11l-.23-.35a11.05,11.05,0,0,0-6.95-4.94l-.11,0a9.12,9.12,0,0,0-1.65-.15h-.22l-.53,0c0,.13,0,.13.17.16l.16,0,.18.05.19,0a12.77,12.77,0,0,1,5.66,3.1l.26.25a11.44,11.44,0,0,1,2.51,3.75l.08.19a12.05,12.05,0,0,1,.54,1.77l0,.13a8.87,8.87,0,0,1,0,4l0,.11a6.53,6.53,0,0,1-3.07,4,9.22,9.22,0,0,1-3.07,1l-.12,0a12.76,12.76,0,0,1-2.39.17h-.6a17.56,17.56,0,0,1-3-.23l-.17,0a12.15,12.15,0,0,1-7.73-4.6l-.18-.24a15.48,15.48,0,0,1-2.69-7.44l0-.2a23,23,0,0,1-.21-3.32v-.6c0-1.06.05-2.11.14-3.16V50a27.52,27.52,0,0,1,5-13.75l.09-.13c.43-.61.87-1.19,1.33-1.77L27,34c.28-.36.56-.7.87-1,.14-.16.27-.31.4-.48a7.28,7.28,0,0,1,.54-.58c.12-.13.23-.26.34-.4a8.32,8.32,0,0,1,.63-.69l.32-.34c.68-.79,1.43-1.52,2.17-2.26l.58-.57.13-.13c.23-.23.44-.46.65-.7s.32-.34.49-.51l.11-.11.45-.45a13.26,13.26,0,0,0,1-1.08,4.44,4.44,0,0,1,.37-.38.83.83,0,0,0,.17-.21,1.48,1.48,0,0,1,.27-.29,1.43,1.43,0,0,1,.5.09A8.12,8.12,0,0,0,43,23c.11-.08.11-.08.2-.25l-.12,0-.57,0-.19,0c-.4,0-.79,0-1.19,0a1.82,1.82,0,0,1,.53-.33,3.29,3.29,0,0,0,1.65-1.3.6.6,0,0,0-.05-.39,3.19,3.19,0,0,0-.5-.39l-.29-.2-.15-.1c-.26-.19-.5-.39-.74-.6l-.12-.09a3.52,3.52,0,0,1-1.32-2,1.24,1.24,0,0,1,.21-.94,1.26,1.26,0,0,1,1-.37h.27a7,7,0,0,1,3.53,1.42,3.18,3.18,0,0,0,2,.83l.16,0a1.2,1.2,0,0,0-.19-.47L47,17.74l-.09-.15a15.76,15.76,0,0,1-1.65-3.93c-.08-.31-.17-.61-.27-.92s-.16-.49-.23-.75a9.84,9.84,0,0,0-2.36-4.24l-.11-.12a7.47,7.47,0,0,0-3.7-1.95l-.13,0A6.4,6.4,0,0,0,37,5.55h-.45a5.61,5.61,0,0,0-1.47.15.8.8,0,0,1-.31,0V5.57A11.89,11.89,0,0,1,36.5,5l.13,0A5.35,5.35,0,0,1,38,4.77ZM50.63,17.56a1,1,0,0,0-.25.59,1.19,1.19,0,0,0,.47.87,2.75,2.75,0,0,0,.89.3l.16,0c.64.14,1.28.26,1.92.39s1.52.3,2.28.47l1.2.26.17,0,1.2.26.4.08a4.31,4.31,0,0,0,2.94,0l.11-.09.11-.08a1.62,1.62,0,0,0,.57-1.06c0-.15,0-.3,0-.45v-.14a1,1,0,0,0-.2-.68h-.11l-.09.18-.12.23-.06.12-.06.11,0,.11a.89.89,0,0,1-.29.26,5.61,5.61,0,0,1-1.57-.26L60,19.09l-1.74-.39-1.84-.38c-.67-.14-1.34-.27-2-.42l-1.72-.38-.29-.07-.4-.08-.12,0A1.27,1.27,0,0,0,50.63,17.56Zm16.42.28a2.25,2.25,0,0,0-.08.24l0,.14a3,3,0,0,0,.1,2.13,1.18,1.18,0,0,0,.48.46.37.37,0,0,0,.28,0,6.49,6.49,0,0,0-.25-.89,8.65,8.65,0,0,1-.37-2Zm-3.25.28,0,.19a9.65,9.65,0,0,1-.54,1.81l-.06.17-.07.16a.75.75,0,0,0,0,.42c.26,0,.36-.18.53-.38A2.29,2.29,0,0,0,64,19v-.13a5,5,0,0,0-.06-.77ZM53.33,21.28H53.2c-.49,0-1,.09-1.46.16l-.13,0a1.53,1.53,0,0,0-.87.35.65.65,0,0,0,0,.34,3.5,3.5,0,0,0,2.07.45l0,.1-.05.13,0,.13a4,4,0,0,0,.43,3,4.31,4.31,0,0,0,2.21,1.8l.15.06a3.75,3.75,0,0,0,2.77-.26,4.3,4.3,0,0,0,2.12-2.48,4.14,4.14,0,0,0,.13-1.31v-.19a2.91,2.91,0,0,0-.19-1.09h.12a2,2,0,0,0,1.4-.34.34.34,0,0,0,0-.28c-.73-.79-3-.62-4-.67A39.26,39.26,0,0,0,53.33,21.28Zm9,6.76.06.12h.22a29.32,29.32,0,0,1,6.51,1.07l.15,0q.69.18,1.35.39l.17.06.32.1A2.12,2.12,0,0,0,72.2,30c.13-.1.13-.1.12-.24s-.39-.38-.65-.5L71.19,29,71,29a19.41,19.41,0,0,0-6.5-1H63.24A6.19,6.19,0,0,0,62.28,28ZM68.79,31l-.4.05c-.88.11-1.76.26-2.63.45l-.2,0a30.24,30.24,0,0,0-2.93.8l-.37.12-.19.06-.16.05c-.14,0-.14,0-.19.17.39-.07.77-.13,1.14-.21.6-.13,1.2-.24,1.81-.33l.19,0c1.11-.17,2.23-.29,3.35-.37l.54,0c.69-.06,1.38-.1,2.06-.11a2,2,0,0,0,1.28-.31A.6.6,0,0,0,72,31a1.27,1.27,0,0,0-.78-.18h-.8A11.63,11.63,0,0,0,68.79,31Zm1.73,2-.22.1a26.2,26.2,0,0,0-5.38,3.51l-.2.16a11.65,11.65,0,0,0-1.09,1l0,.11.08-.06a22.44,22.44,0,0,1,2.05-1.46l.14-.08c.82-.5,1.66-1,2.5-1.43l.16-.09c.75-.41,1.52-.77,2.31-1.12.39-.17.78-.36,1.17-.55l.12-.06a1.27,1.27,0,0,0,.33-.2.91.91,0,0,0,0-.33C72,32.15,71,32.75,70.52,33ZM30.84,34.38l-.17.08a3.25,3.25,0,0,0-1.4,1.32.61.61,0,0,0,0,.33l.06.06a1.29,1.29,0,0,0,.82-.3l.1-.08.31-.24.19-.14.54-.42.16-.12.16-.12.13-.11a1.43,1.43,0,0,0,.28-.32A.4.4,0,0,0,32,34.1,1.79,1.79,0,0,0,30.84,34.38Zm-1.15,2.68a.83.83,0,0,0-.14.57c.06.07.06.07.21.07a2.72,2.72,0,0,0,1.44-1,2.53,2.53,0,0,0,.31-.42.51.51,0,0,0-.05-.22A2.15,2.15,0,0,0,29.69,37.06Zm-4.45,2.3a1.42,1.42,0,0,0-.43,1l0,.18a1.13,1.13,0,0,0,.84-.45l.1-.09a2.29,2.29,0,0,0,.79-1.16v-.15C26.08,38.56,25.56,39,25.24,39.36Zm4.46.33a1,1,0,0,0-.15.68.53.53,0,0,0,.46,0A3.07,3.07,0,0,0,31.18,39a.7.7,0,0,0-.06-.23C30.54,38.72,30,39.25,29.7,39.69Zm-4.37,2a1.8,1.8,0,0,0-.51,1.05l0,.19a.45.45,0,0,0,.28.05,3.15,3.15,0,0,0,1.28-1.57.61.61,0,0,0,0-.33A1.44,1.44,0,0,0,25.33,41.66Zm1.59,2a2.72,2.72,0,0,0-.85,1.75v.33a.58.58,0,0,0,.5-.16,6.23,6.23,0,0,0,1.18-2.08.58.58,0,0,0-.06-.28C27.35,43.18,27.17,43.38,26.92,43.62Zm-2.4,1.05a2.32,2.32,0,0,0-.69,1.6v.21l.22.11a2.51,2.51,0,0,0,.87-1.35l0-.14a1.09,1.09,0,0,0,0-.69C24.77,44.41,24.69,44.52,24.52,44.67ZM29,44.62A2.76,2.76,0,0,0,28.15,46a3.86,3.86,0,0,0,0,.68.82.82,0,0,0,.28,0,3.45,3.45,0,0,0,1.07-1.9.53.53,0,0,0-.06-.28C29.24,44.51,29.23,44.51,29,44.62Z"/><path class="cls-2" d="M62.84,0h.38a6.59,6.59,0,0,1,1.59.19l.16,0a7.38,7.38,0,0,1,3,1.53l.12.09a5.46,5.46,0,0,1,.67.69l.13.17a9,9,0,0,1,1.89,5.37v.15a13.14,13.14,0,0,1-.45,3.85,2.86,2.86,0,0,0-.13.72.8.8,0,0,0,.25.27,6.2,6.2,0,0,1,.69.75l.32.37c.2.23.38.47.55.71l.1.14c.23.32.45.64.67,1a2.4,2.4,0,0,0,.28.37l.14-.07.49-.22L74,16l.31-.13.19-.09a1.42,1.42,0,0,1,.84-.12,1.56,1.56,0,0,1,.62.49,1.36,1.36,0,0,1,0,.87,2.59,2.59,0,0,1-1.08.76l-.17.08c-.41.21-.41.21-.54.21a9.26,9.26,0,0,0,.62,1.11,2.09,2.09,0,0,1,.19.36c.07.16.07.16.22.21h.15a.79.79,0,0,1,.44.16,1,1,0,0,1,0,.5c0,.28.27.57.44.79a20,20,0,0,0,1.34,1.56l.15.16A11.66,11.66,0,0,0,78.87,24l.16.12a12.47,12.47,0,0,0,1.3.83l.1.06a17.72,17.72,0,0,0,2,.91l.35.14.35.14a3,3,0,0,1,1.82,1.61V28l.14,0a13.59,13.59,0,0,1,1.55-.41l.2,0a12.6,12.6,0,0,1,2.87-.29l-.06.11a1.63,1.63,0,0,1-.34.09l-.22,0-.11,0a18.65,18.65,0,0,0-2.3.63l-.15,0-.72.25-.75.26v.51a3,3,0,0,1-.18.78H85a18.41,18.41,0,0,1,3.32.22l.17,0c1,.16,1,.16,1.26.37H86.48q-1,0-2,.06l0,.16a1.92,1.92,0,0,1-.19.41l-.08.12-.08.12-.07.12-.2.3.11,0a13.59,13.59,0,0,1,5.55,3.34l.06.11a2.24,2.24,0,0,1-.64-.36,20.57,20.57,0,0,0-4.25-2.12l-.12,0a9,9,0,0,0-1.21-.4l-.13.17a4.78,4.78,0,0,1-.67.6l-.41.36c-.17.15-.34.3-.52.44a9.19,9.19,0,0,0-.75.65c-.2.18-.41.35-.62.52s-.29.25-.43.38a10.51,10.51,0,0,1-.91.74l-.14.11a4.48,4.48,0,0,1-.86.52v.17c0,.22,0,.43,0,.64V38c0,1.82,0,1.82-.37,2.22a3.7,3.7,0,0,1-2.56.63h-.38a2.36,2.36,0,0,1-1.6-.41,1.09,1.09,0,0,1-.34-.9l-.09,0a17.56,17.56,0,0,1-2.26.74l-.12,0c-.59.15-1.19.27-1.79.37l-.33.06c-.67.11-1.34.2-2,.26l-.22,0-.69.05H65c-.53,0-1,0-1.57,0l-.82,0H62.2a2.36,2.36,0,0,0-1.44.18,1.51,1.51,0,0,0-.44,1,1.92,1.92,0,0,0,.17.39l.09.25a17.26,17.26,0,0,0,1.26,2.55,6.85,6.85,0,0,1,1,5l-.14.41,0,.11a8,8,0,0,1-1.82,2.92l-.21.24a5.22,5.22,0,0,1-.46.48H60.1l.1.15A10.77,10.77,0,0,1,62,58.7l0,.11a8.72,8.72,0,0,1-.3,4.93l-.05.11a7.25,7.25,0,0,1-1.35,2.25l-.13.14a9.8,9.8,0,0,1-1.75,1.53,1.46,1.46,0,0,0-.2.18l.15,0a5,5,0,0,1,3,2.24,1.6,1.6,0,0,1,0,1.14,2.16,2.16,0,0,1-1.28,1.16A9,9,0,0,1,56,72.6l-.21,0c-1.34-.18-2.67-.44-4-.7l-.12,0A11.6,11.6,0,0,1,48.37,71a1.42,1.42,0,0,0-.71,0l-.17,0-.56.1c-.75.14-1.5.26-2.24.38l.05.11.08.15.08.15a2.15,2.15,0,0,1,0,1.52c0,.09-.09.17-.13.25l-.06.11a2.46,2.46,0,0,1-1.51.9C40,75.3,36,74,32.86,73.27l-.2,0-.55-.14-.16,0a2.58,2.58,0,0,1-1.59-.87c-.07-.12-.13-.24-.19-.37l-.06-.13a1.63,1.63,0,0,1-.09-.48v-.29l-.1,0A14.81,14.81,0,0,1,25.52,69l-.1-.06a5.82,5.82,0,0,1-1.62-1.28,1.81,1.81,0,0,0-1.41-.78l-.36,0A28,28,0,0,0,13,67.5l-.16,0-1.13.25-.17,0C8,68.6,8,68.6,5.17,70.64a.69.69,0,0,0,0,.45c.52.85,1.9,1.23,2.81,1.52l.26.09c.64.21,1.29.41,2,.57l1,.24,1.62.41L13,74c.47.11.94.23,1.42.32s.69.16,1,.25l.91.25c4.15,1,4.15,1,4.87,1.85a.83.83,0,0,1,0,.54,1.21,1.21,0,0,1-.85.35H19.34A55.25,55.25,0,0,1,7,76.05L6.7,76a12.41,12.41,0,0,1-4.89-2l-.09-.07A4.31,4.31,0,0,1,0,71.57c0-.11,0-.21,0-.32L0,71A4.41,4.41,0,0,1,1.19,68l.08-.09a7.49,7.49,0,0,1,1.16-1.09l.15-.13A18.25,18.25,0,0,1,7.41,64l.4-.16c1.59-.62,3.19-1.18,4.82-1.68l.19-.06.56-.17.9-.28.54-.17a26.15,26.15,0,0,0,4.53-1.74c0-.37-.07-.73-.13-1.09l0-.15c0-.15-.05-.3-.07-.45s-.05-.3-.07-.45,0-.19,0-.28a23.49,23.49,0,0,1-.18-3.65v-.52c0-1.12,0-2.22.12-3.33v-.14c0-.25.05-.5.08-.76v-.11c.09-.73.21-1.46.35-2.19l0-.15a16.35,16.35,0,0,1,.42-1.81c.06-.21.11-.43.16-.65a24.13,24.13,0,0,1,2.65-6.18l.08-.15a33.26,33.26,0,0,1,2.59-3.78c.13-.16.25-.33.38-.5s.5-.63.77-.93l.4-.5c.28-.33.57-.64.87-1l.38-.42c.25-.29.51-.57.77-.85l.27-.29c.54-.59,1.11-1.16,1.68-1.72l.1-.1.19-.19c.15-.15.3-.31.44-.47s.49-.52.74-.77l.26-.26.65-.65c.19-.18.37-.37.55-.55l.26-.25a10.64,10.64,0,0,0,1-1.12l-.18-.09a10,10,0,0,1-2.5-1.65L32,21.29A9.77,9.77,0,0,1,29.13,16c0-.13-.05-.25-.08-.38a11,11,0,0,1,1.18-7.48L30.29,8A10.57,10.57,0,0,1,33.2,4.56l.09-.07a9.53,9.53,0,0,1,7.09-2l.27,0,.14,0a9.11,9.11,0,0,1,3.11,1.1l.18.09A8.86,8.86,0,0,1,45.78,5c.12.11.23.21.36.31a10.91,10.91,0,0,1,1.4,1.56l.14.17c.31.4.6.8.87,1.23.29-.09.58-.19.86-.3a23.44,23.44,0,0,1,3.78-1l1.44-.31.23,0,.53-.11,0-.17a7.7,7.7,0,0,1,.37-1.15L55.85,5a9.06,9.06,0,0,1,1.84-2.77l.14-.15a7.05,7.05,0,0,1,3.56-2l.13,0A6.47,6.47,0,0,1,62.84,0ZM61.22,1.65l-.11,0a6.81,6.81,0,0,0-3.78,3.47,2.3,2.3,0,0,0-.31,1c.31,0,.63-.09.94-.15l.78-.15.33-.07a12.46,12.46,0,0,1,2.12-.16h.66a1,1,0,0,1,.77.36.77.77,0,0,1-.08.54l-.12.14-.14.15c-.22.25-.46.48-.7.71l-.25.25v.12h.22A10.71,10.71,0,0,1,65,8.65l.17.06v.1a.66.66,0,0,0,.15.49l.36.2.13.06a.91.91,0,0,0,.38.16,7.12,7.12,0,0,0-.11-1.39l0-.21a19.91,19.91,0,0,0-.64-2.38,9.67,9.67,0,0,1-.53-2.66V2.91a1.64,1.64,0,0,1,.2-.87,2.24,2.24,0,0,0,.11-.34l-.28-.08-.15,0-.19-.05-.11,0a6.1,6.1,0,0,0-1.35-.1H63A5.12,5.12,0,0,0,61.22,1.65Zm5,.84c-.12.12-.08.4-.08.57A6.89,6.89,0,0,0,66.6,5l0,.12.07.26.21.68,0,.13a13.38,13.38,0,0,1,.48,2.06l0,.13a4.22,4.22,0,0,1,0,.87,3.11,3.11,0,0,0,.1,1.55,1.81,1.81,0,0,0,.66.38,1.59,1.59,0,0,1,.43.3.5.5,0,0,0,.35.19,9.58,9.58,0,0,0,.36-2.87V8.61A8.59,8.59,0,0,0,69,6l0-.16a6.39,6.39,0,0,0-2.46-3.39ZM35.1,7l-.2,0A7,7,0,0,0,32,8.8L31.85,9a5,5,0,0,0-1.4,2.64l0,.16a9.89,9.89,0,0,0,1.1,6.57l.06.11a7.34,7.34,0,0,0,1,1.37l.22.26a8.39,8.39,0,0,0,5.52,2.63,6.79,6.79,0,0,0,4.31-1.29l.16-.12.12-.1v-.12l-.2-.09a9.7,9.7,0,0,1-2.32-1.42l-.1-.07a3.61,3.61,0,0,1-1.13-1.72l0-.12a2.11,2.11,0,0,1,.12-1.58,2.16,2.16,0,0,1,1.34-1,5,5,0,0,1,3.32.36l.53.19a2.6,2.6,0,0,0-.17-.56c-.11-.33-.21-.65-.3-1-.67-2.45-1.46-5-3.78-6.32A6.78,6.78,0,0,0,35.1,7Zm1.91-3-.12,0a10,10,0,0,0-3.53,2.1l.06.11.13-.07a6.31,6.31,0,0,1,1.38-.49l.16,0a6.55,6.55,0,0,1,1.59-.15h.43A7.47,7.47,0,0,1,42.33,7.7l.13.11A10.52,10.52,0,0,1,45,12.86c.1.37.22.73.34,1.1.06.17.11.35.16.52a13.52,13.52,0,0,0,1.58,3.43c.17.25.17.25.17.44a1.24,1.24,0,0,1-1.06-.12c-.47-.24-.9-.52-1.34-.8a6.62,6.62,0,0,0-3.42-1.29h-.13a1.44,1.44,0,0,0-1,.4,1.32,1.32,0,0,0-.17,1,4.26,4.26,0,0,0,1.76,2.31l.24.18c.46.36.46.36.94.7a.54.54,0,0,1,.25.31,1.31,1.31,0,0,1-.56.84,6.29,6.29,0,0,1-1.65.94v.06a12.74,12.74,0,0,0,1.38-.06l.2,0,.49,0a3,3,0,0,1-1.06.68l-.17.07a7.44,7.44,0,0,1-3.07.52h-.14a6.09,6.09,0,0,1-1.64-.2.78.78,0,0,0-.65,0,3.56,3.56,0,0,0-.63.71,5.24,5.24,0,0,1-.44.5l-.09.1c-.43.46-.88.9-1.33,1.34l-.09.1-.18.17c-.16.16-.3.31-.44.48s-.5.52-.75.78l-.16.15c-.18.19-.37.37-.56.56l-.56.55-.14.15a9.87,9.87,0,0,0-.7.75c-.16.18-.32.35-.49.52-.31.33-.61.67-.91,1s-.38.44-.58.65-.45.51-.67.78l-.38.45c-.3.35-.58.7-.85,1.07l-.26.34a28.86,28.86,0,0,0-5.85,15.14v.12q0,.4-.06.81v.12c-.06.81-.06,1.62-.06,2.44v.2a24.88,24.88,0,0,0,.18,3.23l0,.43a16.55,16.55,0,0,0,.47,2.41l.09.35a12.65,12.65,0,0,0,2.75,5.33l.13.16a10.6,10.6,0,0,0,1.61,1.53l.09.06a13.71,13.71,0,0,0,8.17,2.58h1a10.31,10.31,0,0,0,6.77-2l.1-.08a6.25,6.25,0,0,0,2-4.07,8.16,8.16,0,0,0,0-1.21v-.14a8.06,8.06,0,0,0-.18-1.9l0-.2A11.79,11.79,0,0,0,40.54,55l-.08-.09a11.29,11.29,0,0,0-1.66-1.43l-.1-.07A12.94,12.94,0,0,0,34,51.3l-.19,0-.05-.12a11.12,11.12,0,0,1,5,1.07l.14.07a10.64,10.64,0,0,1,3.56,2.9l.07.09a10.89,10.89,0,0,1,1.34,2.15l.15.31a11,11,0,0,1,.91,6.81l0,.12a7.33,7.33,0,0,1-1.66,3.47l-.12.14a11.42,11.42,0,0,1-1.34,1.26,2.13,2.13,0,0,0,1.12.56A8.59,8.59,0,0,0,44.41,70h.12l.6-.08.43-.07a13.19,13.19,0,0,0,9-5l.07-.1.07-.09a13.35,13.35,0,0,0,1.78-3.61l.07-.2c.06-.18.11-.35.16-.52l0-.12a16.51,16.51,0,0,0,.64-4.42l-.11,0a1.91,1.91,0,0,1-1.26-.7l-.15-.24-.07-.11a4.78,4.78,0,0,1-.33-3.52A6.21,6.21,0,0,1,56.75,49l.08-.11c.12-.14.23-.28.36-.41a1.56,1.56,0,0,0,.3-1,15.6,15.6,0,0,1,1.66-6,.38.38,0,0,0,.05-.29h-.1a35,35,0,0,1-4.72-.55l-.2,0a12.33,12.33,0,0,1-5.65-2.19c-.09-.08-.09-.08-.2-.07v-.11l.15,0a16.11,16.11,0,0,0,1.67.38l.27.05c.68.13,1.37.26,2.06.37l.19,0c.56.1,1.13.16,1.7.23l.39.05,1.71.2h.14c.84.09,1.69.16,2.54.21h.16a37.82,37.82,0,0,0,9.08-.46l.18,0a8.86,8.86,0,0,0,3.91-1.14c0-.16,0-.31,0-.46v-.13c0-.1,0-.21,0-.31l-.09,0a6.28,6.28,0,0,1-1.93.3l.06.79c-.4-.13-.4-.13-.56-.39a1.67,1.67,0,0,1-.12-1,2.45,2.45,0,0,1,.68-1.06,1.26,1.26,0,0,1,.33-.11l0,.08a1.88,1.88,0,0,0-.24.76,7.06,7.06,0,0,0,2.76-.93c.35-.15.7-.3,1-.42l.16-.05a4.24,4.24,0,0,1,2.72.2.57.57,0,0,0,.54,0,2.61,2.61,0,0,0,.31-.27l.51-.41c.41-.32.81-.66,1.2-1a2.55,2.55,0,0,0-.69-.37,7.21,7.21,0,0,1-3.8-3.53,2.73,2.73,0,0,1,.06-2,3.67,3.67,0,0,1,2.45-1.53,12.89,12.89,0,0,1,1.53-.28,5.67,5.67,0,0,0-.64-.45,11.14,11.14,0,0,1-1.82-1.45l-.11-.1a13.34,13.34,0,0,1-1.24-1.36l-.31-.38-.14-.17L75,22.05h-.06l0,.16a3.07,3.07,0,0,1-1.1,2.13,4.09,4.09,0,0,1-.61.34l-.13.06a2.84,2.84,0,0,1-1.93,0,5.23,5.23,0,0,1-.63-.41l-.18-.12a2.79,2.79,0,0,1-.84-1.75,5.61,5.61,0,0,1,0-.82h-.14l-.19,0H69a1.39,1.39,0,0,1-.33-.07,1.16,1.16,0,0,1,0-.4,7.42,7.42,0,0,1,3.12-.9l.12,0c.53-.1,1-.18,1.58-.25a3.38,3.38,0,0,0-.24-.51l-.08-.12-.08-.12L73,19c-.06-.1-.12-.2-.19-.3l-.17.08-.89.42-.11.05-.7.34-.24.11c-1.4.66-1.4.66-2,.57a1,1,0,0,1-.62-.56,1.94,1.94,0,0,1,0-.34v-.17a.77.77,0,0,1,.19-.44,2.93,2.93,0,0,1,.39-.21l.12-.06.25-.12.4-.19.83-.39.42-.2.26-.12.81-.4a8.66,8.66,0,0,0-1.91-2.63l-.18-.21A11.36,11.36,0,0,0,68,12.69l-.13-.11a15.89,15.89,0,0,0-2.62-1.74l-.12-.07-.72-.38-.19-.11L64,10.19l-.16-.09a.41.41,0,0,0-.36,0c-.15.07-.29.13-.43.21l-.12.06a7.18,7.18,0,0,0-2,1.45.57.57,0,0,1-.24.18A3.52,3.52,0,0,1,61.89,9.6l.39-.28V9.27H59.16c-.13,0-.13,0-.18-.06a1.89,1.89,0,0,1,.58-1.35c.21-.27.43-.53.67-.79.1-.08.1-.08.09-.16a18.54,18.54,0,0,0-2.85.52q-1.11.25-2.22.48l-.13,0-1.19.24a22.77,22.77,0,0,0-3.7.93l-.15.06-.8.32a2.07,2.07,0,0,0,.15.44,9.6,9.6,0,0,1,1,3.85v.31a2.09,2.09,0,0,1-.41-.53l-.11-.19-.11-.19-.11-.2-.23-.4c-.18-.33-.38-.65-.57-1l-.26-.45a25.59,25.59,0,0,0-2.41-3.62l-.07-.09A9.19,9.19,0,0,0,40,3.78,8.33,8.33,0,0,0,37,4.06Zm34.8,17.48a1,1,0,0,0-.17.73,1.62,1.62,0,0,0,.41.56,1.05,1.05,0,0,0,.78,0,1,1,0,0,0,.48-.56.84.84,0,0,0-.08-.6.87.87,0,0,0-1.42-.12Zm6.56,6-.21,0a4,4,0,0,0-1,.35L77,28a1.23,1.23,0,0,0-.58.57,2.13,2.13,0,0,0,.45,1.57,7.81,7.81,0,0,0,.62.67l.1.11a6.31,6.31,0,0,0,1.74,1.23l.15.08a2.26,2.26,0,0,0,1.48.37,4.83,4.83,0,0,0,1.12-.89l.11-.1a4.69,4.69,0,0,0,1.48-2.69,1.11,1.11,0,0,0-.24-.86,3.69,3.69,0,0,0-2.61-.69h-.38A12.45,12.45,0,0,0,78.37,27.54Zm-2.75,8.63.06,3.53a1.52,1.52,0,0,0,1.11-.28,2.12,2.12,0,0,0,.09-.8v-.76c0-.13,0-.26,0-.39,0-.32,0-.64,0-1l-.17,0-.23-.06-.12,0a4.42,4.42,0,0,1-.48-.15A.38.38,0,0,0,75.62,36.17Zm-1.08.18-.2.08-.22.08-.21.08-.53.2a9.72,9.72,0,0,0,.34,2.85.59.59,0,0,0,.46.13h1c0-1.18,0-2.36,0-3.53A1.47,1.47,0,0,0,74.54,36.35Zm-15,7.83a4.23,4.23,0,0,0-.27.78l0,.11c0,.11,0,.23-.08.34l0,.12a12,12,0,0,0-.26,1.57,5,5,0,0,1-1.34,2.8,4.24,4.24,0,0,0-1,3.27c0,.11,0,.21,0,.32h.11l.06-.13c.45-.94.45-.94.89-1.1l0,.14c-.06.17-.12.34-.17.52s-.05.15-.08.22a2.55,2.55,0,0,0-.21,1.3.71.71,0,0,0,.51.12H58l0-.09c.64-1.55.64-1.55,1-1.76,0,.14,0,.28-.05.41v.12a2.57,2.57,0,0,1-.11.48v.39a6.26,6.26,0,0,0,2.51-3.31c.56-2.12-.33-3.86-1.31-5.69-.16-.3-.32-.61-.47-.92Zm-.73,11.38v.18l-.06.66a2.64,2.64,0,0,1,0,.29c0,.58-.1,1.15-.19,1.73l0,.19a15.2,15.2,0,0,1-3.09,7.46,2.75,2.75,0,0,0-.22.26c-.41.5-.86,1-1.32,1.41l-.39.38a11.91,11.91,0,0,0,3.09-1l.12-.06A7.2,7.2,0,0,0,60,63.86l.06-.1A5.69,5.69,0,0,0,60.66,62l0-.18a8.44,8.44,0,0,0-.26-3.24l0-.13A7.67,7.67,0,0,0,59,55.56ZM19.47,61.21l-.13.06-.13.06-.14.07-.33.16a.54.54,0,0,0,.12.43,6.44,6.44,0,0,1,.72,3.32l2.24.06-.39-.62a18,18,0,0,1-1.63-3.64A.64.64,0,0,0,19.47,61.21Zm-2,.85c-.56.21-1.14.39-1.72.56l-.21.06-.18.06c-.15,0-.15,0-.19.16a2.64,2.64,0,0,0,.18.38A3.79,3.79,0,0,1,15.8,65v.16c0,.14,0,.27,0,.4.54,0,1.07-.08,1.61-.14l1.42-.14A7.2,7.2,0,0,0,18.12,62C17.88,61.87,17.73,62,17.51,62.06Zm-3,1-1.14.34-.39.12-.56.17-.18.05a8.28,8.28,0,0,0-1,.38l.18.44.08.17.07.17a3.24,3.24,0,0,1,.15,1V66c0,.1,0,.21,0,.31l.8-.13.23,0,.12,0,1.82-.32a1.32,1.32,0,0,0,.39-.1,5,5,0,0,0-.45-2.47ZM6.74,65.76c0,.22.08.29.22.46a3.1,3.1,0,0,1,.49,1l0,.17,0,.13.16-.06c1.15-.39,2.3-.76,3.48-1.07V66a4.24,4.24,0,0,0-.5-1.77C9.45,64.25,7.83,65.26,6.74,65.76Zm-1.27.61-.12.07a13.41,13.41,0,0,0-2.19,1.45L3,68l-.09.07v.11l.12,0a2.29,2.29,0,0,1,1.45,1L5,68.88a10.07,10.07,0,0,1,1.35-.78c.2-.09.4-.21.6-.32a2.85,2.85,0,0,0-.33-.94l-.06-.11a1.82,1.82,0,0,0-.45-.58A1.21,1.21,0,0,0,5.47,66.37Zm-3.1,2.31A2.08,2.08,0,0,0,2.1,69L2,69.1a2.62,2.62,0,0,0-.6,1.48l.11-.07.14-.09.15-.08a1.76,1.76,0,0,1,1-.28h.11a1.66,1.66,0,0,1,.73.2h.17L4,70l.08-.15c.06-.14.06-.14,0-.26a2.2,2.2,0,0,0-1.48-.89ZM56,68.85a21.22,21.22,0,0,1-3.91,1,9.69,9.69,0,0,0-1.5.38.57.57,0,0,0,.4.17l.2,0,.21,0,.23,0,.65.13.49.09,1.08.2.18,0,1.75.31.13,0a4.32,4.32,0,0,0,.62.05,7.92,7.92,0,0,0-.76-.67.76.76,0,0,1-.25-.34,3.79,3.79,0,0,1,2.34,1,1.62,1.62,0,0,0,1.13.14l.4-.06a.75.75,0,0,0-.31-.37L59,71l-.13-.08-.13-.09-.92-.62c-.28-.2-.28-.2-.34-.38l0-.1a5.13,5.13,0,0,1,2.29.87.59.59,0,0,0,.29.13,1.21,1.21,0,0,0-.56-.72,9.57,9.57,0,0,0-2.71-1.16l-.14,0A.81.81,0,0,0,56,68.85ZM39.59,70.5l-.22.1-.12.05a10.52,10.52,0,0,1-3.86.61H34.25a11.77,11.77,0,0,1-2.28-.1,3.87,3.87,0,0,0-.68,0,.87.87,0,0,0,.39.51l.42.16.13,0a18.57,18.57,0,0,0,2.09.47l.17,0,.62.12c.31.06.62.12.93.2s.44.09.67.12l.75.13.85.15.6.1.36.06.16,0a4.35,4.35,0,0,0,.88.07c-.15-.16-.3-.31-.46-.45l-.1-.09-.2-.18-.25-.23v-.12a4.18,4.18,0,0,1,2.08.84l.21.22a1,1,0,0,0,.84.2,3.09,3.09,0,0,0,.85-.14A7.09,7.09,0,0,0,41.67,72c-.45-.32-.45-.32-.5-.48l0-.1a4.81,4.81,0,0,1,2.25,1l.2.13.13.09a1.08,1.08,0,0,0-.39-.78,7.33,7.33,0,0,0-2.23-1.17l-.19-.07A1.55,1.55,0,0,0,39.59,70.5Zm-38.12.75a2.65,2.65,0,0,0,.9,1.46l.1.11a5.28,5.28,0,0,0,1.64,1l0-.1a2.71,2.71,0,0,1,.63-1,.72.72,0,0,0-.32-.37,2,2,0,0,1-.74-1.14c0-.1,0-.2,0-.3v-.26A2.3,2.3,0,0,0,1.47,71.25Zm3.72,1.82a2.93,2.93,0,0,0-.52.82l0,.17.3.12.19.06.19.07.21.06q.69.24,1.41.42l.24.06.24.06.21.06a2.43,2.43,0,0,0,.6,0c0-.1.07-.2.11-.29l.06-.17a2.72,2.72,0,0,0,.11-.38l-.85-.31-.23-.07-.35-.12a11,11,0,0,1-1.38-.55C5.48,73,5.48,73,5.19,73.07Zm4,1.27L9,74.63l-.08.17a.57.57,0,0,0-.06.38l1.22.21.57.1.65.12.2,0a11.66,11.66,0,0,0,1.17.14l0-.11.09-.26a.5.5,0,0,0,0-.3l-.14,0L12.06,75l-.12,0-1.37-.3-.11,0-.56-.13-.2,0-.17,0A.89.89,0,0,0,9.15,74.34Zm4.21,1a.84.84,0,0,0-.06.62c.89.12,1.78.23,2.67.32l.21,0a11.65,11.65,0,0,0,1.32,0,4,4,0,0,0-1-.34l-.15,0L16,75.84l-.63-.14-.59-.14-.3-.07-.42-.1-.13,0A2.12,2.12,0,0,0,13.36,75.29Z"/><path class="cls-3" d="M52.26,42l.13,0,.52.15a29.85,29.85,0,0,0,5.39,1,5.21,5.21,0,0,1-.21,1,16.1,16.1,0,0,0-.46,2.17l0,.21c0,.29-.08.59-.1.89a1.94,1.94,0,0,1-.63,1.4,5.72,5.72,0,0,0-1.55,4.25,3.62,3.62,0,0,0,.91,2.23,2.28,2.28,0,0,0,1.18.51,15,15,0,0,1-3,9.31,1.66,1.66,0,0,0-.23.31,3.56,3.56,0,0,1-1.64,1l-.16.06a11.61,11.61,0,0,1-2.64.78l-.11,0a10.3,10.3,0,0,1-5.33-.58,2.61,2.61,0,0,1,.22-.72,6.88,6.88,0,0,0,.4-1.41l0-.13a10.81,10.81,0,0,0-1.27-7.32.78.78,0,0,1-.12-.68l0-.12,0-.13c0-.14.07-.28.11-.42l.08-.29c.14-.52.3-1,.47-1.55l0-.15.05-.14,0-.13c0-.09,0-.09.15-.15l.22.07.14.06.14,0A6.84,6.84,0,0,0,47,54a2.08,2.08,0,0,1,.69.15,2.08,2.08,0,0,1,.13.3,3.09,3.09,0,0,0,1.4,1.75,2.65,2.65,0,0,0,1.9,0,4.08,4.08,0,0,0,2-2.4l.15-.53,0-.11a4.4,4.4,0,0,0,.1-1.15v-.19a4.31,4.31,0,0,0-.28-1.63l0-.12a5.06,5.06,0,0,0-.86-1.45l-.11-.13a9.58,9.58,0,0,0-2-1.6,10.91,10.91,0,0,1-1.67-1.36,2.87,2.87,0,0,1,.39-.59l.08-.1c.28-.34.57-.67.88-1l.11-.12a9.25,9.25,0,0,1,1-.83l.09-.07.64-.49.13-.1A.54.54,0,0,1,52.26,42Z"/><path class="cls-4" d="M35.83,7.42l.1,0a8.63,8.63,0,0,1,4.72,4.66,16.23,16.23,0,0,1,.73,2l0,.12a1.79,1.79,0,0,1,.07.61l-.21,0a3.68,3.68,0,0,0-1.41.47l-.13.08A2.31,2.31,0,0,0,39,16.61a3.42,3.42,0,0,0,.88,2.52,4.35,4.35,0,0,0,.73.69l.12.09a10.13,10.13,0,0,0,2.14,1.18c-.13.39-.76.67-1.11.85a9,9,0,0,1-2.25.72l-.17,0a7.88,7.88,0,0,1-5.44-1.57c-.15-.12-.3-.24-.44-.37l-.16-.14a7.75,7.75,0,0,1-.85-.87l-.13-.15a10,10,0,0,1-2-7.1c0-.2.06-.4.09-.6l0-.11A5.55,5.55,0,0,1,32,8.88l.11-.12a7,7,0,0,1,1.8-1.29L34,7.4A2.3,2.3,0,0,1,35.83,7.42Z"/><path class="cls-1" d="M44.12,33.2c.19.18.36.36.53.55a5.71,5.71,0,0,0,.71.68l.16.14a11.59,11.59,0,0,0,2.19,1.32l.12.06a17.56,17.56,0,0,0,4,1.23l.36.08,1.64.32.14,0c1,.16,1.9.28,2.85.38l.52.06.34,0,.16,0c.84.08,1.68.11,2.53.11h1.37a29.51,29.51,0,0,0,5-.33l.43-.07a15.68,15.68,0,0,0,2.24-.48.91.91,0,0,1,.33,0l0,.15.06.2,0,.2a.75.75,0,0,0,.3.4l.28.06-.06-.79h.17a7.73,7.73,0,0,0,1.85-.33l0,.9C68,40.38,61.56,40,56.72,39.5l-.66-.07a16.58,16.58,0,0,1-2.74-.35l-.66-.1c-.65-.08-1.29-.19-1.94-.31l-.13,0c-.49-.09-1-.18-1.47-.29l-.12,0a5.12,5.12,0,0,1-.67-.19v.11l.09,0a3.21,3.21,0,0,1,.46.29,14.73,14.73,0,0,0,5.8,2l.77.14v.11l-.1,0a11,11,0,0,0-3,1,.76.76,0,0,1-.61,0l-.17-.06-.18-.08-.2-.08-.2-.09a13.8,13.8,0,0,1-3.52-2l-.16-.13a10.61,10.61,0,0,1-1.58-1.49l-.07-.09c-.27-.34-.53-.67-.77-1l.06-.12.28.12a4.66,4.66,0,0,0-.35-.87A5.56,5.56,0,0,1,44.12,33.2Z"/><path class="cls-5" d="M61.72,21.76c.12.12.12.12.13.27v.13a2.44,2.44,0,0,1-1.52.33l0,.1a3.55,3.55,0,0,1,.15,1.17v.18a4.09,4.09,0,0,1-1.22,2.89A3.93,3.93,0,0,1,56.41,28a4.05,4.05,0,0,1-2.81-1.37l-.11-.1a4.12,4.12,0,0,1-.92-2.82,2.93,2.93,0,0,1,.24-1.06h-.16c-1.44-.06-1.44-.06-1.91-.44a.5.5,0,0,1,0-.34,4.15,4.15,0,0,1,2.18-.5l.16,0C59.91,20.66,59.91,20.66,61.72,21.76Zm-5.35,1.39a1.11,1.11,0,0,0,.47,1.58,1.2,1.2,0,0,0,.91.08,1.65,1.65,0,0,0,.72-.69,1.14,1.14,0,0,0-1.33-1.48A1.26,1.26,0,0,0,56.37,23.15Z"/><path class="cls-1" d="M58.81,55.56a.52.52,0,0,1,.22.06,7.71,7.71,0,0,1,1.4,2.91l0,.14a7.8,7.8,0,0,1,.08,3.84l0,.18a4.82,4.82,0,0,1-.58,1.39l-.09.16a6.69,6.69,0,0,1-.69,1l-.13.15a5.49,5.49,0,0,1-.94.86l-.17.13a10.91,10.91,0,0,1-4.31,1.78l-.12-.06.14-.12a13.86,13.86,0,0,0,1.86-2l.23-.29a14.47,14.47,0,0,0,2.59-5.91l0-.19A25.93,25.93,0,0,0,58.81,55.56Z"/><path class="cls-1" d="M64.86,2.71V2.9a9.08,9.08,0,0,0,.54,2.78c.13.38.24.76.35,1.14l0,.19A4,4,0,0,1,66,8.2q-.48-.13-1-.3a17.94,17.94,0,0,0-2.7-.73A.34.34,0,0,1,62.06,7l.09-.11.13-.14.12-.13a.86.86,0,0,0,.25-.49.41.41,0,0,0-.19-.36,1,1,0,0,0-.7-.19h-.13a13.7,13.7,0,0,0-2.93.24L58.09,6,57.71,6l-.18,0-.15,0a1.73,1.73,0,0,1-.36,0,.8.8,0,0,1,.29-.63L57.79,5l.35-.37.11-.13A6.92,6.92,0,0,1,64.86,2.71Z"/><path class="cls-6" d="M40.7,8.09c1.91,1.47,2.61,3.66,3.24,5.9a10.13,10.13,0,0,0,.42,1.32.51.51,0,0,1,0,.29c-.23-.07-.45-.16-.67-.25a6,6,0,0,0-2.25-.48l0-.16a11.56,11.56,0,0,0-1.82-4.27l-.06-.09a7.49,7.49,0,0,0-4.31-3,4.4,4.4,0,0,0-.73-.06C36.24,6.12,39.18,7,40.7,8.09Z"/><path class="cls-7" d="M52.27,17.43l.22.05,1.56.34c.56.13,1.12.24,1.69.36.74.15,1.48.3,2.22.47l2.08.44.26.05.12,0c.31.06.62.14.92.21a1.67,1.67,0,0,0,.5,0,1.9,1.9,0,0,0,.49-.66l.1-.2.08-.15c.17.06.17.06.23.16a2.56,2.56,0,0,1,0,1.45,2,2,0,0,1-1,1,1.91,1.91,0,0,1-.63.08h-.15a13.39,13.39,0,0,1-2.43-.4L58,20.62l-.75-.17-1.5-.31c-.73-.14-1.45-.3-2.18-.46l-1.37-.28c-1.26-.23-1.26-.23-1.53-.6A1.18,1.18,0,0,1,50.4,18a1.16,1.16,0,0,1,.47-.58A2.32,2.32,0,0,1,52.27,17.43Z"/><path class="cls-1" d="M53.71,65.82a3.88,3.88,0,0,1-1.29,1.29l-.17.14a11.12,11.12,0,0,1-1.29.86l-.21.12a11.44,11.44,0,0,1-1.89.84l-.34.14a14.77,14.77,0,0,1-4.11.81l-.18,0a3.77,3.77,0,0,1-2.4-.41v-.17a3.65,3.65,0,0,1,.36-.31l.22-.19.1-.09a7.87,7.87,0,0,0,1.73-2.27l.11,0,.56.19.11,0a10,10,0,0,0,5.72.08l.19,0c.49-.15,1-.32,1.43-.51l.17-.07a10.45,10.45,0,0,0,1-.44A.36.36,0,0,1,53.71,65.82Z"/><path class="cls-8" d="M41.77,25c-.08.4-.19.78-.3,1.17a18.33,18.33,0,0,0-.6,4.66L41,30.7a7.42,7.42,0,0,1,.86-.61L42,30a1,1,0,0,1,.58-.09l.06.06c0,.11,0,.22,0,.32v.18a4.68,4.68,0,0,1-.09.54,5.49,5.49,0,0,0-.06,1.07v.18a7.69,7.69,0,0,0,.07,1.07,2.68,2.68,0,0,0,.4-.49,2.41,2.41,0,0,1,.66-.69,1.26,1.26,0,0,1,.39,0c.1.1.07.22.08.35a8.82,8.82,0,0,0,1,3.86.78.78,0,0,1,.07.45,2.45,2.45,0,0,1-1.35-1,4.52,4.52,0,0,1-.67-1.4l-.09.12-.13.16-.12.15a.44.44,0,0,1-.38.21.65.65,0,0,1-.45-.25,5.38,5.38,0,0,1-.73-2.74l-.11.11-.14.14-.14.14a.51.51,0,0,1-.42.19c-.2,0-.2,0-.32-.12a6.87,6.87,0,0,1-.18-5,6,6,0,0,1,1.31-2.27l.1-.12C41.58,25,41.58,25,41.77,25Z"/><path class="cls-4" d="M80.42,27.36h.38a3.88,3.88,0,0,1,2.65.66,1.13,1.13,0,0,1,.26.88,1.28,1.28,0,0,1-.39.93l-.24.18-.21.2a3.77,3.77,0,0,1-2.83.88,5.9,5.9,0,0,1-3.52-1.75,1.47,1.47,0,0,1-.06-.78,1.61,1.61,0,0,1,1-.75,6.85,6.85,0,0,1,1.73-.37l.22,0A7.38,7.38,0,0,1,80.42,27.36ZM79,28.55a.49.49,0,0,0,.18.4,2.6,2.6,0,0,0,2,.28l.24-.05.11,0a1.58,1.58,0,0,0,.75-.43.61.61,0,0,0-.12-.37A2.85,2.85,0,0,0,79,28.55Z"/><path class="cls-3" d="M44.25,5.49c.33.27.64.57.94.86l.17.17a10.68,10.68,0,0,1,1,1.07l.08.1a38.57,38.57,0,0,1,3.19,5.07c.07.11.14.22.2.33l.11.18.1.17a.42.42,0,0,1,.08.31H50l-.18-.24-.12-.17-.07-.1c-.08-.12-.17-.23-.26-.35-.37-.5-.73-1-1.07-1.54-1.82-2.86-4.06-5.15-7.32-6.23l-.16-.06a7.13,7.13,0,0,0-2.11-.24h-.84a6.86,6.86,0,0,0-2.73.67.54.54,0,0,1-.32.07v.17l-.21.08-.27.1L34.15,6c-.26.1-.53.2-.79.32a1.18,1.18,0,0,1,.47-.52l.1-.08A9.82,9.82,0,0,1,37.18,4l.12,0A8.09,8.09,0,0,1,44.25,5.49Z"/><path class="cls-3" d="M60.32,6.91l-.13.15A4.33,4.33,0,0,0,59,9c0,.16,0,.16.07.23h3.25a3,3,0,0,1-.46.41,3.61,3.61,0,0,0-1.08,2.16l0,.12a1.06,1.06,0,0,1-.56,0,2.32,2.32,0,0,1,.4-1.85l.11-.22-.75,0-.25,0a15.13,15.13,0,0,0-1.51.14,2.4,2.4,0,0,1-.46,0A3.48,3.48,0,0,1,58.7,8l-.14,0L57,8.42c-.3.07-.6.14-.9.23-.58.17-1.17.28-1.76.41l-1.72.38-.16,0c-.55.13-1.09.26-1.62.42l-.14,0a4.27,4.27,0,0,0-.77.31.4.4,0,0,1-.34,0,1.36,1.36,0,0,1-.15-.27l-.08-.15a.62.62,0,0,1,0-.31,29.76,29.76,0,0,1,5.27-1.44l.19,0,.19,0,.19,0,.39-.08q1.18-.24,2.37-.51c.53-.13,1.06-.24,1.59-.34l.15,0A3.31,3.31,0,0,1,60.32,6.91Z"/><path class="cls-6" d="M66.21,2.54h.05v.1a.61.61,0,0,0,.15.5l.37.21.28.15.14.08a3.59,3.59,0,0,1,1.49,1.64l.06.12a8.85,8.85,0,0,1,.62,3.41V8.9A9.25,9.25,0,0,1,69,11.62a2.14,2.14,0,0,1-.41-.25l-.11-.08-.22-.16-.11-.08-.1-.08a.7.7,0,0,0-.24-.13.68.68,0,0,1-.32-.23,3.06,3.06,0,0,1,0-.74c0-.21,0-.42,0-.63V9.11a7.07,7.07,0,0,0-.16-1.52l0-.13A24.37,24.37,0,0,0,66.61,5c-.43-1.43-.43-1.43-.41-2V2.85C66.2,2.75,66.2,2.64,66.21,2.54Z"/><path class="cls-4" d="M60,50.25a2.82,2.82,0,0,1,.7,1.79,4.51,4.51,0,0,1-1.19,1.56l-.14.14c-.28.3-.28.3-.48.36a3.51,3.51,0,0,1,.09-.85c0-.18.06-.36.08-.55a1.1,1.1,0,0,0-.53.61l-.07.13A9,9,0,0,0,58,54.55h-.51a.47.47,0,0,1-.33-.12A2.57,2.57,0,0,1,57.38,53l.07-.22.18-.55a1,1,0,0,0-.54.45l-.1.17c-.11.2-.21.4-.31.61h-.11a4.4,4.4,0,0,1,.7-3.27,1.12,1.12,0,0,1,.64-.43l.15,0A2.18,2.18,0,0,1,60,50.25Z"/><path class="cls-1" d="M55.76,40.78l.21,0,.26,0,.16,0,1.38.13.41,0,1,.09a2.4,2.4,0,0,1-.26.72,14.4,14.4,0,0,0-.58,1.41,25.72,25.72,0,0,1-6.16-1.18c0-.19.12-.23.29-.33l.23-.11.12-.06A8.23,8.23,0,0,1,54.51,41l.18,0,.48-.12.14,0A1.69,1.69,0,0,1,55.76,40.78Z"/><path class="cls-4" d="M41.24,70.68a4.22,4.22,0,0,1,.45.18l.17.07a5.86,5.86,0,0,1,1.26.72l.12.09a1.55,1.55,0,0,1,.49.64,1.19,1.19,0,0,1,0,.22l-.11-.08a5,5,0,0,0-2.42-1.1.79.79,0,0,0,.34.46l.13.1.15.1.29.21.14.1a5.37,5.37,0,0,1,1.08,1,2.29,2.29,0,0,1-1.59,0l-.2-.2a3.76,3.76,0,0,0-2.19-1,1.56,1.56,0,0,0,.48.57L40,73l.09.08a3,3,0,0,1,.25.25,5.65,5.65,0,0,1-1.23-.13l-.23,0-.45-.07-.57-.1-1.57-.29-.14,0a1.1,1.1,0,0,1-.46-.13v-.11l.3-.19.17-.1a6.69,6.69,0,0,1,1.53-.5q.93-.23,1.83-.54l.12,0a6.67,6.67,0,0,0,.88-.34A.93.93,0,0,1,41.24,70.68Z"/><path class="cls-6" d="M18.12,62a7.35,7.35,0,0,1,.73,3.36l-.15,0-.69.06h-.13c-.52,0-1,.1-1.56.18a4.13,4.13,0,0,1-.5,0v-.1c0-.15,0-.3,0-.45v-.16a3.77,3.77,0,0,0-.28-1.37l-.08-.17c-.07-.17-.15-.33-.23-.49.3-.12.61-.23.92-.33l.13,0,.41-.14.55-.18.12,0c.17-.06.33-.11.49-.18S18,61.89,18.12,62Z"/><path class="cls-1" d="M59.54,44.18a1.29,1.29,0,0,1,.31.46l.08.18L60,45c.2.42.4.84.62,1.25a5.75,5.75,0,0,1,.8,4.21,1.39,1.39,0,0,1-.2-.47,2.06,2.06,0,0,0-1-1.32,1.88,1.88,0,0,0-1.36,0l-.43.1.07-.18A6.72,6.72,0,0,0,59,46.72c.06-.49.15-1,.25-1.46l0-.19A4,4,0,0,1,59.54,44.18Z"/><path class="cls-1" d="M40.93,46.31c.22.08.24.15.36.34a8.15,8.15,0,0,0,3.12,2.91l.1.06a12,12,0,0,0,2.25.87c1.38.44,1.38.44,1.62.81l-.11.23-.16,0-.22,0-.12,0L47,51.37a7.55,7.55,0,0,1-4.39-1.64l-.1-.08A7.3,7.3,0,0,1,41.2,47.8c-.06-.12-.13-.24-.2-.36a.31.31,0,0,1-.07-.23l-.11-.06c0-.1,0-.21,0-.32l0-.18A.83.83,0,0,1,40.93,46.31Z"/><path class="cls-4" d="M13.86,63.24a3.46,3.46,0,0,1,.71,1.1c.07.15.07.15.24.19l.12-.62a3.68,3.68,0,0,1,.22,1.74c-.4.11-.81.18-1.22.25s-1.07.18-1.6.3a2.5,2.5,0,0,1-.54.07v-.18a3.38,3.38,0,0,0-.45-1.79c-.05-.11-.05-.11,0-.28l.35-.13.1,0,.35-.11.22-.08.66-.21.11,0C13.73,63.24,13.73,63.24,13.86,63.24Z"/><path class="cls-3" d="M65,10.67A16.41,16.41,0,0,1,67.05,12l.18.13c.42.31.82.64,1.22,1l.14.12A13.69,13.69,0,0,1,70.3,15l.24.3a11.41,11.41,0,0,1,.81,1.12l.18.26.1.14.07.11a.24.24,0,0,1,.06.2c-.38.21-.38.21-.62.17a1.28,1.28,0,0,1-.21-.28l-.11-.19-.07-.1A13,13,0,0,0,69.46,15L69.37,15a13.73,13.73,0,0,0-2.22-2l-.25-.18a17.11,17.11,0,0,0-4.22-2.14V10.5l.43-.23.12-.06.12-.06.12-.06C63.88,10,64.61,10.49,65,10.67Z"/><path class="cls-3" d="M62.94,1.41h.36a5.6,5.6,0,0,1,1.9.3l0,.12q-.11.27-.18.54l-.06.2,0,.15a5.23,5.23,0,0,1-.66-.08,6.82,6.82,0,0,0-5,1.09,9.29,9.29,0,0,0-1.86,1.79,1.31,1.31,0,0,1-.2.23,1.84,1.84,0,0,1,.26-.8l.06-.11a6.76,6.76,0,0,1,.64-.94l.11-.16a6.23,6.23,0,0,1,3.64-2.25l.13,0A5.62,5.62,0,0,1,62.94,1.41Z"/><path class="cls-6" d="M76.58,29.39l.07.06.37.27.12.1A5.66,5.66,0,0,0,80.47,31h.16a3.69,3.69,0,0,0,2.58-1.2,2.09,2.09,0,0,0,.2-.22c.06.17.06.17,0,.28A5.78,5.78,0,0,1,81,32.58a2,2,0,0,1-1.29-.28l-.12,0A7.35,7.35,0,0,1,77.75,31l-.1-.08A3.53,3.53,0,0,1,76.58,29.39Z"/><path class="cls-6" d="M40.93,70.58v.06l-.21.07-.61.21a25.12,25.12,0,0,1-2.55.8,5.25,5.25,0,0,0-1.79.71h-.11v.11c-.71-.09-1.42-.2-2.12-.36l-.31-.07c-.36-.08-.72-.18-1.07-.29l-.13,0a1.54,1.54,0,0,1-.68-.41.6.6,0,0,1-.06-.23,4.39,4.39,0,0,1,.89.06,15.61,15.61,0,0,0,2,.07h.57a13.07,13.07,0,0,0,2.26-.13l.29,0a8,8,0,0,0,2.52-.71A1.59,1.59,0,0,1,40.93,70.58Z"/><path class="cls-4" d="M57.91,69.18l.11,0,.33.13.11.06A3.94,3.94,0,0,1,60,70.53v.16a2.61,2.61,0,0,1-.53-.26,4.74,4.74,0,0,0-2-.74.82.82,0,0,0,.32.45l.14.1.69.47a4.13,4.13,0,0,1,.82.6v.11c-1.18.18-1.18.18-1.66-.17l-.18-.14a4.3,4.3,0,0,0-1-.53l-.14-.06a2.58,2.58,0,0,0-.87-.16,1.49,1.49,0,0,0,.47.53,4.88,4.88,0,0,1,.54.48c-.51,0-1-.11-1.52-.2l-.22,0-.21,0-.19,0a1.58,1.58,0,0,1-.38-.15,2.22,2.22,0,0,1,.83-.58l.16-.09.47-.23.33-.17.6-.29.24-.12C57.49,69,57.49,69,57.91,69.18Z"/><path class="cls-6" d="M56.85,68.84l.39.12.34.11a4.32,4.32,0,0,1-.56.3l-.24.11-.13.06c-.62.28-1.24.57-1.84.88l-.14.08a1.31,1.31,0,0,0-.57.47c-1.17-.18-2.32-.41-3.47-.67a.57.57,0,0,1,.36-.18l.17,0,.18,0,.19-.05q.72-.17,1.47-.3a15.1,15.1,0,0,0,3-.82A1,1,0,0,1,56.85,68.84Z"/><path class="cls-6" d="M19.8,61.11l.07.2a14.17,14.17,0,0,0,1.86,3.88c.09.12.09.12.09.18l-2.24-.06,0-.53a5.22,5.22,0,0,0-.82-3l-.06-.09c.06-.17.06-.17.15-.23l.12-.06.12-.06.14-.06.13-.06C19.67,61.11,19.67,61.11,19.8,61.11Z"/><path class="cls-3" d="M75.12,36.23c.06,1.17.06,2.35,0,3.53H74a.51.51,0,0,1-.37-.25,1,1,0,0,1-.06-.26l0-.17c0-.32-.07-.63-.1-1l0-.35a8.55,8.55,0,0,1-.06-1l.64-.24.21-.08.31-.12.19-.07A.88.88,0,0,1,75.12,36.23Z"/><path class="cls-1" d="M59.49,48.49a1.71,1.71,0,0,1,1.28.51,2.54,2.54,0,0,1,.63,1.59,5,5,0,0,1-.74,1.61,1.42,1.42,0,0,1-.08-.4,2.69,2.69,0,0,0-.47-1.28.29.29,0,0,1-.07-.23l-.09,0-.28-.15a2.28,2.28,0,0,0-2-.19l-.12.05a4.18,4.18,0,0,1,.45-.65c.13-.18.27-.35.39-.53A3.34,3.34,0,0,1,59.49,48.49Z"/><path class="cls-9" d="M70.58,30.83h.79A1.13,1.13,0,0,1,72,31a1,1,0,0,1,0,.28,2.23,2.23,0,0,1-1.46.31c-.73,0-1.46.07-2.2.13h-.18q-2.27.18-4.5.57l-.12,0c-.48.08-1,.18-1.43.3-.29.07-.29.07-.48,0A27.93,27.93,0,0,1,68.46,31l.14,0A14.52,14.52,0,0,1,70.58,30.83Z"/><path class="cls-10" d="M63.43,28h.2a21.51,21.51,0,0,1,4.09.24l.41.07a17.29,17.29,0,0,1,3,.74l.18.07a2.91,2.91,0,0,1,.93.47.51.51,0,0,1,.06.28c-.15.14-.21.13-.41.14a3.13,3.13,0,0,1-1-.21c-.64-.21-1.29-.4-1.94-.57l-.18-.05c-.92-.24-1.85-.44-2.8-.61l-.17,0a19.32,19.32,0,0,0-2.93-.33h-.55L62.28,28A11.09,11.09,0,0,1,63.43,28Z"/><path class="cls-11" d="M72.37,32.41c.17.12.17.12.22.27s0,.18-.15.26a11,11,0,0,1-1.24.62l-.37.17-.49.21c-.76.35-1.5.73-2.24,1.13l-.46.25a27.23,27.23,0,0,0-4,2.59c0-.17,0-.17.12-.3a11.25,11.25,0,0,1,1-.87c.16-.12.31-.26.47-.39.44-.36.9-.69,1.37-1l.11-.08A27.64,27.64,0,0,1,70.64,33l.17-.09C71.83,32.37,71.83,32.37,72.37,32.41Z"/><path class="cls-4" d="M10.67,64.25a2.89,2.89,0,0,1,.39,1.34l-.17,0a15.45,15.45,0,0,0-1.68.48l-.39.13c-.44.14-.86.3-1.28.48a.45.45,0,0,1-.24,0l-.15-.25c-.11-.18-.21-.35-.33-.52l-.08-.1,0-.08A16.32,16.32,0,0,1,8.6,65l.45-.18C10.44,64.25,10.44,64.25,10.67,64.25Z"/><path class="cls-1" d="M78.2,33l.09,0,.41.19.14.07.93.42a2.64,2.64,0,0,1-.49.51l-.17.13-.09.07-.3.25-.44.35-.33.27a.64.64,0,0,1-.49.22l-.71-.23a5.6,5.6,0,0,0-1.41-.22l.09,0A11.11,11.11,0,0,0,78.2,33Z"/><path class="cls-4" d="M6.18,66.21a1.79,1.79,0,0,1,.51.73.46.46,0,0,1-.06.22.61.61,0,0,1-.21.12l-.14.06-.14.06A5.45,5.45,0,0,0,4.4,68.59a.26.26,0,0,1-.26.08,1.44,1.44,0,0,1-.41-.21,1.93,1.93,0,0,0-.8-.29v-.11l.18-.15.12-.09.13-.1.13-.1a15.72,15.72,0,0,1,1.83-1.16l.16-.1.15-.08.14-.08A.53.53,0,0,1,6.18,66.21Z"/><path class="cls-3" d="M57.83,22.7a1.48,1.48,0,0,1,.59.52,1.55,1.55,0,0,1,0,1,1.51,1.51,0,0,1-.67.53l-.11.06a1.62,1.62,0,0,1-1.05-.26,1.36,1.36,0,0,1-.38-.9,1,1,0,0,1,.35-.73A1.26,1.26,0,0,1,57.83,22.7Z"/><path class="cls-1" d="M62.33,7.09l.4.1.25,0a18.1,18.1,0,0,1,1.91.55l.13,0a6.35,6.35,0,0,1,1,.37L66,8a7.4,7.4,0,0,1,.17,1.69l-.45-.22-.13-.07-.12-.06-.11,0a.45.45,0,0,1-.15-.11l0-.25V8.71l-.12-.05-.31-.13a11.47,11.47,0,0,0-3.44-.66C61.53,7.46,61.83,7,62.33,7.09Z"/><path class="cls-3" d="M75.62,36.17a2.46,2.46,0,0,1,.62.17l.35.09.18,0,.14,0c0,.38,0,.77,0,1.15,0,.14,0,.27,0,.4s0,.38,0,.56v.18c0,.53,0,.53-.19.73a2.56,2.56,0,0,1-1,.17Z"/><path class="cls-6" d="M2.48,70.69l.09.18a5.49,5.49,0,0,0,1.82,2.18l0,.11c-.08.2-.15.41-.23.62a4.88,4.88,0,0,1-2.59-2.22.38.38,0,0,1,0-.36A1.11,1.11,0,0,1,1.8,71l.14-.1A1,1,0,0,1,2.48,70.69Z"/><path class="cls-3" d="M74.89,22.05a9.55,9.55,0,0,1,1,1.11,11.76,11.76,0,0,0,3,2.59,4.59,4.59,0,0,1,.44.33,4.22,4.22,0,0,1-1.12.11v-.11l-.1,0a3.52,3.52,0,0,1-.56-.39l-.13-.09a12.27,12.27,0,0,1-2.06-1.95,3.22,3.22,0,0,0-.24-.28.91.91,0,0,1-.3-.67C74.83,22.45,74.85,22.25,74.89,22.05Z"/><path class="cls-6" d="M11.06,65.43h0a4.62,4.62,0,0,1,.06.74v.26l-.12,0c-1,.27-2,.57-3,.92l-.5.17-.09-.3-.05-.16a.65.65,0,0,1,0-.39,4.73,4.73,0,0,1,.47-.2L8,66.45c2.33-.88,2.33-.88,3-.86Z"/><path class="cls-3" d="M82.07,28.27a1.14,1.14,0,0,1,.22.22.4.4,0,0,1-.05.28,1.47,1.47,0,0,1-.65.35l-.19.05a2.81,2.81,0,0,1-1.92-.07,2,2,0,0,1-.44-.33.52.52,0,0,1,.17-.4A3.4,3.4,0,0,1,82.07,28.27Z"/><path class="cls-1" d="M41.55,50.07a5.74,5.74,0,0,1,.41.45A6.08,6.08,0,0,0,45,52.26l-.07.08a2.61,2.61,0,0,0-.3.71l-.08.16-.16,0c-.13-.06-.24-.13-.36-.2L44,53a6.33,6.33,0,0,1-2.4-2.75Z"/><path class="cls-4" d="M2.59,68.68l.23,0,.16,0a2.17,2.17,0,0,1,.85.51c0,.12-.07.24-.11.36l-.06.21c-.06.16-.06.16-.11.22H3.31a2.66,2.66,0,0,0-1.89.51A2.85,2.85,0,0,1,2.08,69l.07-.1A.4.4,0,0,1,2.59,68.68Z"/><path class="cls-4" d="M3.1,70.57h.21a.84.84,0,0,1,.35.07v.14a2.23,2.23,0,0,0,.78,1.58l.33.24a1.25,1.25,0,0,1-.34.45,1.66,1.66,0,0,1-.63-.42l-.09-.09-.28-.28-.15-.14a2.53,2.53,0,0,1-.81-1.43A1,1,0,0,1,3.1,70.57Z"/><path class="cls-12" d="M32,34.1a.71.71,0,0,1,.06.22,2.42,2.42,0,0,1-.75.71l-.12.09-.24.18-.36.26-.22.17-.1.07c-.55.41-.55.41-.9.37-.06-.06-.06-.06-.07-.21a1.59,1.59,0,0,1,.61-.94A3,3,0,0,1,32,34.1Z"/><path class="cls-4" d="M5.44,73a2.42,2.42,0,0,1,.58.23,9.88,9.88,0,0,0,1,.39l.13,0,.54.17.4.13.12,0,.3.11c.05.17.05.17,0,.27l-.18.29A7.78,7.78,0,0,1,7,74.31l-.12,0A20.06,20.06,0,0,1,5,73.5C5,73.23,5.14,73,5.44,73Z"/><path class="cls-3" d="M72.89,21.33a.82.82,0,0,1,.41.5.84.84,0,0,1-.14.72,1,1,0,0,1-.72.36.86.86,0,0,1-.63-.3,1,1,0,0,1-.17-.73A.9.9,0,0,1,72.89,21.33Z"/><path class="cls-6" d="M6.69,67.05a1.26,1.26,0,0,1,.28.73l-.16.08a10,10,0,0,0-2.25,1.38,2.18,2.18,0,0,1-.45-.56l.12-.07a3,3,0,0,0,.38-.3,6.62,6.62,0,0,1,1.83-1.12C6.62,67.13,6.62,67.13,6.69,67.05Z"/><path class="cls-12" d="M27.76,43.23a2.12,2.12,0,0,1-.25.82l-.06.11a6.45,6.45,0,0,1-1,1.48,1.48,1.48,0,0,1-.39.06,2.51,2.51,0,0,1,.64-1.86C27.32,43.13,27.32,43.13,27.76,43.23Z"/><path class="cls-6" d="M4.89,73.44l.2.08a28.43,28.43,0,0,0,2.93,1l.35.1L8.31,75a2.91,2.91,0,0,1-.88-.11l-.15,0c-.65-.17-1.3-.37-1.94-.58l-.18-.06-.17,0-.15-.06-.12,0c0-.17,0-.17,0-.29l.07-.12.06-.12Z"/><path class="cls-4" d="M9.15,74.34a8.18,8.18,0,0,1,1.1.2l1.8.41.12,0,.68.15a1.35,1.35,0,0,1-.11.34,13.81,13.81,0,0,1-1.44-.18l-.21,0C10.4,75.12,9.72,75,9,74.79A1.09,1.09,0,0,1,9.15,74.34Z"/><path class="cls-11" d="M29.35,44.53l.09,0a.94.94,0,0,1-.09.71l0,.12a4.14,4.14,0,0,1-.88,1.35l-.28,0a2.49,2.49,0,0,1,.62-1.84C29.09,44.51,29.09,44.51,29.35,44.53Z"/><path class="cls-13" d="M26.58,38.64a1.14,1.14,0,0,1-.3.74l-.07.09c-.71.87-.71.87-1.08,1h-.28a.62.62,0,0,1,0-.53,4,4,0,0,1,.28-.43l.07-.11A1.77,1.77,0,0,1,26.58,38.64Z"/><path class="cls-12" d="M31.46,36.06a.45.45,0,0,1,.05.22A3.76,3.76,0,0,1,30,37.68a1,1,0,0,1-.34,0l-.06,0a1.14,1.14,0,0,1,.4-.84A2,2,0,0,1,31.46,36.06Z"/><path class="cls-13" d="M26.41,41.05a2.1,2.1,0,0,1-.7,1.4l-.08.09a1.41,1.41,0,0,1-.5.41l-.28-.05a1.46,1.46,0,0,1,.39-1.13C25.53,41.43,25.91,41,26.41,41.05Z"/><path class="cls-14" d="M25,44.41a1.22,1.22,0,0,1-.08.82l-.05.14a2.34,2.34,0,0,1-.82,1.22l-.22-.11a2.32,2.32,0,0,1,.56-1.68C24.77,44.41,24.77,44.41,25,44.41Z"/><path class="cls-6" d="M9,74.67l.06.12.26,0c.28,0,.56.1.83.16.87.2,1.74.33,2.61.47l-.06.33c-.82-.08-1.63-.22-2.44-.37l-.4-.07-1-.17A1.29,1.29,0,0,1,9,74.67Z"/><path class="cls-10" d="M67.05,17.84h.11V18a9.27,9.27,0,0,0,.53,2.43.5.5,0,0,1,0,.43.66.66,0,0,1-.43-.12,2,2,0,0,1-.49-1.5V19C66.82,18.07,66.82,18.07,67.05,17.84Z"/><path class="cls-8" d="M31.12,38.8a.39.39,0,0,1,0,.35,4,4,0,0,1-.62.8l-.09.09a1.84,1.84,0,0,1-.59.39,1,1,0,0,1-.28-.06.92.92,0,0,1,.24-.77C30.14,39.17,30.53,38.74,31.12,38.8Z"/><path class="cls-4" d="M13.36,75.29a6.89,6.89,0,0,1,.89.15l.12,0,.4.09.27.06.78.17.2,0,.48.11.14,0a8.52,8.52,0,0,1,.86.26v.06a10.27,10.27,0,0,1-2.07-.17l.06-.11-.67-.12-.33-.06c-.4-.07-.79-.13-1.19-.16Z"/><path class="cls-15" d="M63.8,18.12H64A6.69,6.69,0,0,1,64,19v.13a2.28,2.28,0,0,1-.57,1.59l-.17.13a.71.71,0,0,1-.22-.06,3.28,3.28,0,0,1,.27-1A10.26,10.26,0,0,0,63.8,18.12Z"/><path class="cls-4" d="M66.26,2.49A3.21,3.21,0,0,1,68,4l.09.14.08.12.08.12c0,.1,0,.1,0,.27l-.12-.18a5.34,5.34,0,0,0-1.9-1.39Z"/><path class="cls-4" d="M14.53,63A1.42,1.42,0,0,1,15,64.08a.67.67,0,0,1-.14.45l-.22-.06c-.08-.13-.15-.26-.22-.4a2.25,2.25,0,0,0-.51-.72v-.11Z"/><path class="cls-6" d="M13.24,75.63c.55.06,1.09.13,1.63.22l.18,0,.17,0,.15,0,.12,0,0,.11c-.52.27-1.67-.09-2.24-.16Z"/><path class="cls-6" d="M3.77,69.35a.57.57,0,0,1,.3.21.29.29,0,0,1,0,.27L4,70l-.09.15-.06.12c-.27,0-.27,0-.39-.17L3.55,70a1.84,1.84,0,0,0,.09-.28A1.39,1.39,0,0,1,3.77,69.35Z"/><path class="cls-4" d="M47.62,51.05c-.07.31-.1.64-.14.94a2.53,2.53,0,0,0,0,.28,7.48,7.48,0,0,0,.12.92,1.43,1.43,0,0,0,.07.28,1.89,1.89,0,0,0,.45.85,1.83,1.83,0,0,0,.7.65,1.85,1.85,0,0,0,.93.29,1.89,1.89,0,0,0,1,0l.59-.25a2.43,2.43,0,0,0,.9-.9l.25-.6a2.5,2.5,0,0,0,0-1.33,1.87,1.87,0,0,1-.08-.34l.09.66a2.17,2.17,0,0,1,0-.51l-.09.67a2,2,0,0,1,.05-.24,1.85,1.85,0,0,0,0-1,1.71,1.71,0,0,0-.3-.93,1.83,1.83,0,0,0-.64-.71,1.78,1.78,0,0,0-.85-.44L50,49.22a2.44,2.44,0,0,0-1.27.34l-.5.39a2.52,2.52,0,0,0-.65,1.1Z"/><path class="cls-16" d="M47,43.51h.12l.25.44A7.42,7.42,0,0,0,48.1,45l.12.13a11.2,11.2,0,0,0,2.38,2,8.94,8.94,0,0,1,.87.65l.16.14a5.14,5.14,0,0,1,1.8,3.28,6.42,6.42,0,0,1-.28,2.58l-.07.19a4,4,0,0,1-1.88,2.18l-.41.15-.1,0A2.38,2.38,0,0,1,48.92,56a4.25,4.25,0,0,1-1.51-2.84,5.07,5.07,0,0,1,0-.55h-.16a9,9,0,0,1-3.77-1l-.17-.08a4.64,4.64,0,0,1-2.18-2.44L41.05,49a4.71,4.71,0,0,1-.23-1.83h.11l0,.09a6.45,6.45,0,0,0,3.69,3.57L45,51l.15,0a10.62,10.62,0,0,0,2.38.36,2.08,2.08,0,0,1,.89.21,2.62,2.62,0,0,1,.16.67,4,4,0,0,0,.57,2.13l.62-1.51H50a7,7,0,0,1-.22,2.19h.55a.38.38,0,0,0,.34-.12,4.65,4.65,0,0,0,.29-1l.05-.3,0-.15c0-.24.09-.47.14-.71l.22.06a5,5,0,0,1,.17,1.34A4.72,4.72,0,0,0,52,50.61a6.3,6.3,0,0,0-2.43-2.76A6.32,6.32,0,0,1,47,44.36,8,8,0,0,1,47,43.51Z"/></symbol></defs><use width="89.75" height="77.55" transform="scale(0.54 0.54)" xlink:href="#rat"/></svg>